<?xml version="1.0" encoding="utf-8"?>
<!-- Generator: Adobe Illustrator 22.0.0, SVG Export Plug-In . SVG Version: 6.00 Build 0)  -->
<svg version="1.1" id="Layer_1" xmlns="http://www.w3.org/2000/svg" xmlns:xlink="http://www.w3.org/1999/xlink" x="0px" y="0px"
	 viewBox="0 0 2400 2500" style="enable-background:new 0 0 2400 2500;" xml:space="preserve">
<style type="text/css">
	.st0{fill:#385898;}
</style>
<path class="st0" d="M338.6,2435.3c123.7,0,210.3-61.9,296.9-111.3c74.2-37.1,148.5-86.6,235.1-123.7
	c395.9-210.3,791.8-433,1187.6-655.7c123.7-61.9,284.5-123.7,371.1-235.1c24.7-37.1,61.9-86.6,49.5-148.5
	c-37.1-136.1-210.3-185.6-321.6-247.4c-272.2-148.5-556.7-309.3-828.9-457.7c-99-61.9-247.4-173.2-371.1-86.6
	c-49.5,24.7-74.2,49.5-86.6,86.6c-12.4,49.5,0,111.3,0,160.8v395.9c0,111.3-12.4,197.9,61.9,247.4c24.7,12.4,74.2,24.7,111.3,12.4
	c123.7-49.5,86.6-272.2,86.6-445.4V690.9c210.3,111.3,420.6,222.7,630.9,321.6c74.2,37.1,197.9,74.2,222.7,173.2
	c24.7,111.3-210.3,197.9-284.5,235.1l-853.6,482.5c-61.9,37.1-222.7,160.8-321.6,123.7c-37.1-12.4-61.9-49.5-61.9-74.2
	c-12.4-49.5-12.4-123.7-12.4-185.6v-395.9v-668c0-99-12.4-222.7,24.7-284.5c86.6-123.7,284.5,99,346.4-99
	c12.4-49.5-12.4-99-37.1-123.7C734.5,121.9,511.8,10.5,425.2-14.2C400.5-26.6,338.6-39,301.5-39C91.2-1.9,140.7,332.2,140.7,579.6
	v1224.7c0,185.6-24.7,433,49.5,544.3C227.3,2410.5,264.4,2410.5,338.6,2435.3L338.6,2435.3z M981.9,1631.1
	c185.6,0,197.9-235.1,24.7-272.2c-99-12.4-173.2,86.6-148.5,173.2C883,1594,920.1,1606.4,981.9,1631.1z"/>
</svg>
